<svg aria-hidden="true" style="position: absolute; width: 0; height: 0; overflow: hidden;" version="1.1" xmlns="http://www.w3.org/2000/svg" xmlns:xlink="http://www.w3.org/1999/xlink">
<defs>
<symbol id="icon-google_ads" viewBox="0 0 20 32">
<path fill="#fbbc04" style="fill: var(--color1, #fbbc04)" d="M-0.021 4.748l-9.527 16.503 8.25 4.763 9.527-16.503-8.25-4.763z"></path>
<path fill="#4285f4" style="fill: var(--color2, #4285f4)" d="M17.759 21.249l-9.529-16.503c-0.848-1.395-2.359-2.312-4.085-2.312-2.631 0-4.764 2.133-4.764 4.764 0 0.848 0.221 1.644 0.609 2.333l-0.012-0.024 9.529 16.503c0.839 1.434 2.372 2.382 4.127 2.382 0.877 0 1.698-0.237 2.403-0.65l-0.023 0.012c1.434-0.839 2.382-2.372 2.382-4.127 0-0.877-0.237-1.698-0.65-2.403l0.012 0.023z"></path>
</symbol>
<symbol id="icon-google_analytics" viewBox="0 0 31 32">
<path fill="#f9ab00" style="fill: var(--color3, #f9ab00)" d="M21.113 5.171v21.439c0 2.399 1.654 3.735 3.41 3.735 1.625 0 3.411-1.137 3.411-3.735v-21.276c0-2.199-1.625-3.573-3.411-3.573s-3.41 1.515-3.41 3.41z"></path>
<path fill="#e37400" style="fill: var(--color4, #e37400)" d="M12.18 16.054v10.556c0 2.399 1.654 3.735 3.41 3.735 1.625 0 3.41-1.137 3.41-3.735v-10.395c0-2.199-1.624-3.573-3.41-3.573s-3.41 1.516-3.41 3.41zM6.658 30.346c1.884 0 3.411-1.527 3.411-3.411s-1.527-3.411-3.411-3.411v0c-1.884 0-3.41 1.527-3.41 3.41s1.527 3.41 3.41 3.41v0z"></path>
</symbol>
<symbol id="icon-app_store" viewBox="0 0 26 32">
<path fill="#fff" style="fill: var(--color5, #fff)" d="M21.168 16.469c-0.035-3.869 3.127-5.75 3.273-5.837-1.792-2.643-4.567-3.005-5.542-3.034-2.332-0.247-4.594 1.412-5.78 1.412-1.212 0-3.040-1.388-5.011-1.347-2.537 0.039-4.909 1.527-6.211 3.836-2.685 4.707-0.684 11.625 1.891 15.43 1.286 1.865 2.79 3.945 4.759 3.872 1.926-0.080 2.646-1.244 4.969-1.244 2.303 0 2.979 1.244 4.986 1.197 2.067-0.033 3.369-1.872 4.611-3.753 1.488-2.137 2.084-4.24 2.109-4.349-0.049-0.015-4.015-1.548-4.054-6.183zM17.374 5.094c1.037-1.311 1.745-3.095 1.549-4.906-1.5 0.067-3.375 1.050-4.455 2.333-0.954 1.13-1.808 2.982-1.587 4.726 1.683 0.127 3.412-0.861 4.495-2.153z"></path>
</symbol>
<symbol id="icon-hub_spot" viewBox="0 0 30 32">
<path fill="#ff7a59" style="fill: var(--color6, #ff7a59)" d="M22.823 10.67v-3.692c0.947-0.421 1.683-1.476 1.683-2.53v-0.106c-0.105-1.582-1.367-2.847-2.945-2.847h-0.105c-0.002 0-0.005 0-0.008 0-1.564 0-2.832 1.268-2.832 2.832 0 0.006 0 0.012 0 0.017v-0.001 0.105c0 1.054 0.631 2.109 1.683 2.531v3.692c-1.367 0.211-2.735 0.843-3.892 1.687l-10.097-7.91c0.105-0.211 0.105-0.528 0.105-0.844 0-1.794-1.473-3.27-3.156-3.27-1.787 0.106-3.26 1.582-3.26 3.27 0 1.793 1.473 3.27 3.156 3.27 0.525 0 1.051-0.105 1.577-0.421l9.992 7.805c-1.787 2.742-1.787 6.433 0.105 9.176l-3.050 3.059c-0.211-0.105-0.526-0.105-0.736-0.105-1.473 0-2.63 1.16-2.63 2.637s1.157 2.637 2.63 2.637c1.472 0 2.63-1.161 2.63-2.637 0-0.211 0-0.528-0.105-0.738l3.050-3.059c3.576 2.743 8.625 2.11 11.359-1.477s2.103-8.648-1.473-11.391c-1.051-0.844-2.313-1.477-3.681-1.687zM21.561 22.905c-2.313 0-4.207-1.898-4.207-4.219s1.894-4.219 4.207-4.219c2.314 0 4.207 1.898 4.207 4.219s-1.893 4.219-4.207 4.219z"></path>
</symbol>
<symbol id="icon-instagram" viewBox="0 0 32 32">
<path fill="#d73676" style="fill: var(--color7, #d73676)" d="M28.006 32.006h-24.005c-2.24 0-4.001-1.76-4.001-4.001v-24.005c0-2.24 1.76-4.001 4.001-4.001h24.005c2.24 0 4.001 1.76 4.001 4.001v24.005c0 2.24-1.76 4.001-4.001 4.001z"></path>
<path fill="#fff" style="fill: var(--color5, #fff)" d="M16.003 8.482c2.48 0 2.721 0 3.681 0.080 0.88 0.080 1.36 0.16 1.68 0.32 0.4 0.16 0.72 0.4 1.040 0.72s0.56 0.64 0.72 1.040c0.16 0.32 0.24 0.8 0.32 1.68 0.080 0.96 0.080 1.28 0.080 3.681s0 2.721-0.080 3.681c-0.080 0.88-0.16 1.36-0.32 1.68-0.16 0.4-0.4 0.72-0.72 1.040s-0.64 0.56-1.040 0.72c-0.32 0.16-0.8 0.24-1.68 0.32-0.96 0.080-1.28 0.080-3.681 0.080s-2.721 0-3.681-0.080c-0.88-0.080-1.36-0.16-1.68-0.32-0.4-0.16-0.72-0.4-1.040-0.72s-0.56-0.64-0.72-1.040c-0.16-0.32-0.24-0.8-0.32-1.68-0.080-0.96-0.080-1.28-0.080-3.681s0-2.721 0.080-3.681c0.080-0.88 0.16-1.36 0.32-1.68 0.16-0.4 0.4-0.72 0.72-1.040s0.64-0.56 1.040-0.72c0.32-0.16 0.8-0.24 1.68-0.32 0.96-0.080 1.2-0.080 3.681-0.080zM16.003 6.801c-2.48 0-2.801 0-3.761 0.080s-1.68 0.24-2.24 0.4c-0.64 0.24-1.12 0.56-1.6 1.040s-0.8 1.040-1.040 1.6c-0.24 0.56-0.4 1.28-0.4 2.24-0.080 0.96-0.080 1.28-0.080 3.761s0 2.801 0.080 3.761c0.080 0.96 0.24 1.68 0.4 2.24 0.24 0.64 0.56 1.12 1.040 1.6s1.040 0.8 1.6 1.040c0.56 0.24 1.28 0.4 2.24 0.4 0.96 0.080 1.28 0.080 3.761 0.080s2.801 0 3.761-0.080c0.96-0.080 1.68-0.24 2.24-0.4 0.64-0.24 1.12-0.56 1.6-1.040s0.8-1.040 1.040-1.6c0.24-0.56 0.4-1.28 0.4-2.24 0.080-0.96 0.080-1.28 0.080-3.761s0-2.801-0.080-3.761c-0.080-0.96-0.24-1.68-0.4-2.24-0.234-0.628-0.588-1.163-1.039-1.599l-0.001-0.001c-0.48-0.48-1.040-0.8-1.6-1.040s-1.28-0.4-2.24-0.4c-0.96-0.080-1.28-0.080-3.761-0.080z"></path>
<path fill="#fff" style="fill: var(--color5, #fff)" d="M16.003 11.282c-0.012-0-0.027-0-0.042-0-2.584 0-4.679 2.095-4.679 4.679 0 0.015 0 0.029 0 0.044l-0-0.002c-0 0.012-0 0.027-0 0.042 0 2.584 2.095 4.679 4.679 4.679 0.015 0 0.029-0 0.044-0l-0.002 0c0.012 0 0.027 0 0.042 0 2.584 0 4.679-2.095 4.679-4.679 0-0.015-0-0.029-0-0.044l0 0.002c0-0.012 0-0.027 0-0.042 0-2.584-2.095-4.679-4.679-4.679-0.015 0-0.029 0-0.044 0l0.002-0zM16.003 19.044c-0 0-0.001 0-0.001 0-1.679 0-3.040-1.361-3.040-3.040 0-0 0-0.001 0-0.001v0c0-0 0-0.001 0-0.001 0-1.679 1.361-3.040 3.040-3.040 0 0 0.001 0 0.001 0h-0c0 0 0.001 0 0.001 0 1.679 0 3.040 1.361 3.040 3.040 0 0 0 0.001 0 0.001v-0c0 0 0 0.001 0 0.001 0 1.679-1.361 3.040-3.040 3.040-0 0-0.001 0-0.001 0h0zM20.884 12.242c0.619 0 1.12-0.502 1.12-1.12s-0.502-1.12-1.12-1.12v0c-0.619 0-1.12 0.502-1.12 1.12s0.502 1.12 1.12 1.12v0z"></path>
</symbol>
<symbol id="icon-linkedin" viewBox="0 0 32 32">
<path fill="#007bb5" style="fill: var(--color8, #007bb5)" d="M28.006 32.006h-24.005c-2.24 0-4.001-1.76-4.001-4.001v-24.005c0-2.24 1.76-4.001 4.001-4.001h24.005c2.24 0 4.001 1.76 4.001 4.001v24.005c0 2.24-1.76 4.001-4.001 4.001z"></path>
<path fill="#fff" style="fill: var(--color5, #fff)" d="M9.042 13.603h2.961v9.602h-2.961v-9.602zM10.562 8.802c0.96 0 1.76 0.8 1.76 1.76s-0.8 1.76-1.76 1.76c-0.96 0-1.76-0.8-1.76-1.76s0.8-1.76 1.76-1.76zM13.923 13.603h2.881v1.28c0.4-0.72 1.36-1.52 2.801-1.52 3.041 0 3.601 2 3.601 4.561v5.281h-2.961v-4.641c0-1.12 0-2.561-1.52-2.561s-1.76 1.2-1.76 2.48v4.721h-2.961v-9.602h-0.080z"></path>
</symbol>
<symbol id="icon-twitter" viewBox="0 0 32 32">
<path fill="#50abf1" style="fill: var(--color9, #50abf1)" d="M28.006 32.006h-24.005c-2.24 0-4.001-1.76-4.001-4.001v-24.005c0-2.24 1.76-4.001 4.001-4.001h24.005c2.24 0 4.001 1.76 4.001 4.001v24.005c0 2.24-1.76 4.001-4.001 4.001z"></path>
<path fill="#fff" style="fill: var(--color5, #fff)" d="M24.405 10.802c-0.64 0.24-1.28 0.48-2 0.56 0.72-0.4 1.28-1.12 1.52-1.92-0.64 0.4-1.44 0.72-2.16 0.8-0.64-0.64-1.52-1.12-2.48-1.12-0.008-0-0.017-0-0.026-0-1.886 0-3.415 1.529-3.415 3.415 0 0.009 0 0.018 0 0.027v-0.001c0 0.24 0 0.56 0.080 0.8-2.881-0.16-5.441-1.52-7.121-3.601-0.32 0.48-0.48 1.12-0.48 1.76 0 1.2 0.64 2.24 1.52 2.881-0.56 0-1.12-0.16-1.6-0.4v0.080c0 1.68 1.2 3.041 2.801 3.361-0.32 0.080-0.56 0.16-0.88 0.16-0.24 0-0.4 0-0.64-0.080 0.4 1.36 1.68 2.4 3.201 2.4-1.2 0.96-2.641 1.44-4.321 1.44-0.24 0-0.56 0-0.8-0.080 1.498 0.954 3.323 1.52 5.281 1.52v0c6.321 0 9.842-5.281 9.842-9.842v-0.48c0.64-0.4 1.2-0.96 1.68-1.68z"></path>
</symbol>
<symbol id="icon-youtube" viewBox="0 0 32 32">
<path fill="#e52d27" style="fill: var(--color10, #e52d27)" d="M28.006 32.006h-24.005c-2.24 0-4.001-1.76-4.001-4.001v-24.005c0-2.24 1.76-4.001 4.001-4.001h24.005c2.24 0 4.001 1.76 4.001 4.001v24.005c0 2.24-1.76 4.001-4.001 4.001z"></path>
<path fill="#fff" style="fill: var(--color5, #fff)" d="M25.845 12.002s-0.16-1.36-0.8-2c-0.8-0.8-1.6-0.8-2-0.88-2.801-0.24-6.961-0.24-6.961-0.24s-4.161 0-6.961 0.24c-0.4 0.080-1.28 0.080-2 0.88-0.56 0.64-0.8 2-0.8 2s-0.16 1.6-0.16 3.201v1.52c0 1.6 0.16 3.201 0.16 3.201s0.16 1.36 0.8 2c0.8 0.8 1.76 0.8 2.24 0.88 1.6 0.16 6.801 0.24 6.801 0.24s4.241 0 7.041-0.24c0.4-0.080 1.28-0.080 2-0.88 0.56-0.64 0.8-2 0.8-2s0.16-1.6 0.16-3.201v-1.52l-0.32-3.201zM13.923 18.564v-5.601l5.441 2.801-5.441 2.801z"></path>
<path fill="#e52d27" style="fill: var(--color10, #e52d27)" d="M13.923 18.564l5.441-2.801-5.441-2.801v5.601z"></path>
<path fill="#3c3c3c" style="fill: var(--color11, #3c3c3c)" opacity="0.12" d="M13.923 12.963l4.721 3.201 0.64-0.32-5.361-2.881z"></path>
</symbol>
<symbol id="icon-facebook" viewBox="0 0 32 32">
<path fill="#395597" style="fill: var(--color12, #395597)" d="M28.006 32.006h-24.005c-2.24 0-4.001-1.76-4.001-4.001v-24.005c0-2.24 1.76-4.001 4.001-4.001h24.005c2.24 0 4.001 1.76 4.001 4.001v24.005c0 2.24-1.76 4.001-4.001 4.001z"></path>
<path fill="#fff" style="fill: var(--color5, #fff)" d="M17.283 24.485v-7.762h2.561l0.4-3.041h-2.961v-1.92c0-0.88 0.24-1.44 1.52-1.44h1.6v-2.641c-0.24 0-1.2-0.080-2.32-0.080-2.32 0-3.841 1.44-3.841 4.001v2.24h-2.641v3.041h2.641v7.762h3.041v-0.16z"></path>
</symbol>
<symbol id="icon-facebook_1" viewBox="0 0 31 32">
<path fill="#1877f2" style="fill: var(--color13, #1877f2)" d="M31.182 15.984c0-8.573-6.981-15.523-15.592-15.523s-15.592 6.951-15.592 15.524c0 7.748 5.702 14.17 13.155 15.334v-10.848h-3.959v-4.487h3.959v-3.419c0-3.89 2.328-6.040 5.89-6.040 1.706 0 3.49 0.304 3.49 0.304v3.82h-1.966c-1.937 0-2.541 1.196-2.541 2.424v2.912h4.325l-0.692 4.487h-3.633v10.847c7.454-1.164 13.155-7.586 13.155-15.334z"></path>
<path fill="#fff" style="fill: var(--color5, #fff)" d="M21.55 20.243l0.681-4.503h-4.265v-2.922c0-1.232 0.597-2.433 2.507-2.433h1.939v-3.833s-1.76-0.304-3.442-0.304c-3.512 0-5.809 2.157-5.809 6.060v3.433h-3.904v4.503h3.904v10.886c0.722 0.121 1.554 0.19 2.403 0.19s1.68-0.069 2.491-0.202l-0.088 0.012v-10.886h3.584z"></path>
</symbol>
<symbol id="icon-arrow" viewBox="0 0 9 7">
<path fill="#000" d="M1.058 0 0 1.332 4.5 7 9 1.332 7.942 0 4.5 4.327 1.058 0Z"/></g><g clip-path="url(#c)"><path fill="#000" d="M1.058 1 0 2.142 4.5 7 9 2.142 7.942 1 4.5 4.708 1.058 1Z"/></g></g><defs><clipPath id="a"><path fill="#fff" d="M0 0h9v7H0z"/></clipPath><clipPath id="b"><path fill="#fff" d="M0 0h9v7H0z"/></clipPath><clipPath id="c"><path fill="#fff" d="M0 1h9v6H0z"/></clipPath></defs></path>

</defs>
</svg>
