<svg xmlns="http://www.w3.org/2000/svg" width="38" height="39" fill="none"><path fill="#1877F2" fill-rule="evenodd" d="M38 19.478C38 9.031 29.493.562 19 .562S0 9.033 0 19.479c0 9.442 6.948 17.267 16.031 18.686V24.946h-4.824v-5.468h4.824v-4.167c0-4.74 2.837-7.36 7.177-7.36 2.079 0 4.253.37 4.253.37v4.655h-2.396c-2.36 0-3.096 1.458-3.096 2.954v3.548h5.27l-.843 5.468h-4.427v13.218C31.052 36.745 38 28.92 38 19.478Z" clip-rule="evenodd"/><path fill="#fff" fill-rule="evenodd" d="m26.262 24.668.83-5.487h-5.197V15.62c0-1.501.727-2.965 3.055-2.965h2.363V7.984s-2.145-.371-4.195-.371c-4.28 0-7.079 2.628-7.079 7.385v4.183h-4.758v5.487h4.758v13.266a18.648 18.648 0 0 0 5.856 0V24.668h4.367Z" clip-rule="evenodd"/></svg>