<svg xmlns="http://www.w3.org/2000/svg" width="38" height="39" fill="none"><g clip-path="url(#a)"><path fill="#F9AB00" d="M25.73 6.302v26.125c0 2.923 2.016 4.552 4.155 4.552 1.98 0 4.157-1.385 4.157-4.552V6.5c0-2.68-1.98-4.354-4.157-4.354S25.73 3.992 25.73 6.302Z"/><path fill="#E37400" d="M14.844 19.563v12.864c0 2.923 2.016 4.552 4.156 4.552 1.98 0 4.156-1.385 4.156-4.552V19.76c0-2.68-1.979-4.354-4.156-4.354-2.177 0-4.156 1.847-4.156 4.156ZM8.115 36.98a4.156 4.156 0 1 0 0-8.313 4.156 4.156 0 0 0 0 8.312Z"/></g><defs><clipPath id="a"><path fill="#fff" d="M0 .563h38v38H0z"/></clipPath></defs></svg>