<svg xmlns="http://www.w3.org/2000/svg" width="30" height="30" fill="none"><g clip-path="url(#a)"><path fill="#E52D27" d="M26.25 30H3.75C1.65 30 0 28.35 0 26.25V3.75C0 1.65 1.65 0 3.75 0h22.5C28.35 0 30 1.65 30 3.75v22.5c0 2.1-1.65 3.75-3.75 3.75Z"/><path fill="#fff" d="M24.225 11.25s-.15-1.275-.75-1.875c-.75-.75-1.5-.75-1.875-.825-2.625-.225-6.525-.225-6.525-.225s-3.9 0-6.525.225c-.375.075-1.2.075-1.875.825-.525.6-.75 1.875-.75 1.875s-.15 1.5-.15 3v1.425c0 1.5.15 3 .15 3s.15 1.275.75 1.875c.75.75 1.65.75 2.1.825 1.5.15 6.375.225 6.375.225s3.975 0 6.6-.225c.375-.075 1.2-.075 1.875-.825.525-.6.75-1.875.75-1.875s.15-1.5.15-3V14.25l-.3-3ZM13.05 17.4v-5.25l5.1 2.625-5.1 2.625Z"/><path fill="#E52D27" d="m13.05 17.4 5.1-2.625-5.1-2.625v5.25Z"/><path fill="#3C3C3C" d="m13.05 12.15 4.425 3 .6-.3-5.025-2.7Z" opacity=".12"/></g><defs><clipPath id="a"><path fill="#fff" d="M0 0h30v30H0z"/></clipPath></defs></svg>